<?xml version="1.0" standalone="no"?>
<!DOCTYPE svg PUBLIC "-//W3C//DTD SVG 1.1//EN" "http://www.w3.org/Graphics/SVG/1.1/DTD/svg11.dtd">
<!-- Created with WaveDrom -->
<svg xmlns="http://www.w3.org/2000/svg" xmlns:xlink="http://www.w3.org/1999/xlink" width="800" height="56" viewBox="0 0 800 56" class="WaveDrom"><g transform="translate(0.5,0.5)" text-anchor="middle" font-size="14" font-family="sans-serif" font-weight="normal"><g transform="translate(4,21)"><g stroke="black" stroke-width="1" stroke-linecap="round"><line x2="715"/><line y2="31"/><line x2="715" y1="31" y2="31"/><line x1="715" x2="715" y2="31"/><line x1="693" x2="693" y2="31"/><line x1="670" x2="670" y2="3"/><line x1="670" x2="670" y1="31" y2="28"/><line x1="648" x2="648" y2="3"/><line x1="648" x2="648" y1="31" y2="28"/><line x1="626" x2="626" y2="3"/><line x1="626" x2="626" y1="31" y2="28"/><line x1="603" x2="603" y2="31"/><line x1="581" x2="581" y2="3"/><line x1="581" x2="581" y1="31" y2="28"/><line x1="559" x2="559" y2="3"/><line x1="559" x2="559" y1="31" y2="28"/><line x1="536" x2="536" y2="3"/><line x1="536" x2="536" y1="31" y2="28"/><line x1="514" x2="514" y2="3"/><line x1="514" x2="514" y1="31" y2="28"/><line x1="492" x2="492" y2="3"/><line x1="492" x2="492" y1="31" y2="28"/><line x1="469" x2="469" y2="31"/><line x1="447" x2="447" y2="31"/><line x1="425" x2="425" y2="3"/><line x1="425" x2="425" y1="31" y2="28"/><line x1="402" x2="402" y2="3"/><line x1="402" x2="402" y1="31" y2="28"/><line x1="380" x2="380" y2="3"/><line x1="380" x2="380" y1="31" y2="28"/><line x1="358" x2="358" y2="3"/><line x1="358" x2="358" y1="31" y2="28"/><line x1="335" x2="335" y2="3"/><line x1="335" x2="335" y1="31" y2="28"/><line x1="313" x2="313" y2="3"/><line x1="313" x2="313" y1="31" y2="28"/><line x1="290" x2="290" y2="3"/><line x1="290" x2="290" y1="31" y2="28"/><line x1="268" x2="268" y2="31"/><line x1="246" x2="246" y2="3"/><line x1="246" x2="246" y1="31" y2="28"/><line x1="223" x2="223" y2="3"/><line x1="223" x2="223" y1="31" y2="28"/><line x1="201" x2="201" y2="3"/><line x1="201" x2="201" y1="31" y2="28"/><line x1="179" x2="179" y2="3"/><line x1="179" x2="179" y1="31" y2="28"/><line x1="156" x2="156" y2="3"/><line x1="156" x2="156" y1="31" y2="28"/><line x1="134" x2="134" y2="3"/><line x1="134" x2="134" y1="31" y2="28"/><line x1="112" x2="112" y2="3"/><line x1="112" x2="112" y1="31" y2="28"/><line x1="89" x2="89" y2="3"/><line x1="89" x2="89" y1="31" y2="28"/><line x1="67" x2="67" y2="3"/><line x1="67" x2="67" y1="31" y2="28"/><line x1="45" x2="45" y2="3"/><line x1="45" x2="45" y1="31" y2="28"/><line x1="22" x2="22" y2="3"/><line x1="22" x2="22" y1="31" y2="28"/></g><g><g><rect x="693" width="22" height="31" field="0" style="fill-opacity:0.1;fill:hsl(45,100%,50%)"/><rect width="268" height="31" field="— inst[31] —" style="fill-opacity:0.1;fill:hsl(215,100%,50%)"/></g><g transform="translate(11,-11)"><g transform="translate(693)"><text y="6">0</text></g><g transform="translate(670)"><text y="6">1</text></g><g transform="translate(603)"><text y="6">4</text></g><g transform="translate(581)"><text y="6">5</text></g><g transform="translate(469)"><text y="6">10</text></g><g transform="translate(447)"><text y="6">11</text></g><g transform="translate(425)"><text y="6">12</text></g><g transform="translate(268)"><text y="6">19</text></g><g transform="translate(246)"><text y="6">20</text></g><g transform="translate(0)"><text y="6">31</text></g></g><g transform="translate(11,15)"><g transform="translate(693)"><text y="6"><tspan>0</tspan></text></g><g transform="translate(637)"><text y="6"><tspan>inst[24:21]</tspan></text></g><g transform="translate(525)"><text y="6"><tspan>inst[30:25]</tspan></text></g><g transform="translate(447)"><text y="6"><tspan>[20]</tspan></text></g><g transform="translate(346)"><text y="6"><tspan>inst[19:12]</tspan></text></g><g transform="translate(123)"><text y="6"><tspan>— inst[31] —</tspan></text></g></g><g transform="translate(11,39)"/></g><g text-anchor="start"><g transform="translate(719,16)"><text y="6"><tspan>J-immediate</tspan></text></g></g></g></g></svg>