<svg xmlns="http://www.w3.org/2000/svg" xmlns:xlink="http://www.w3.org/1999/xlink" width="800" height="56" viewBox="0 0 800 56" class="WaveDrom"><g transform="translate(0.5,0.5)" text-anchor="middle" font-size="14" font-family="sans-serif" font-weight="normal"><g transform="translate(4,21)"><g stroke="black" stroke-width="1" stroke-linecap="round"><line x2="715"></line><line y2="31"></line><line x2="715" y1="31" y2="31"></line><line x1="715" x2="715" y2="31"></line><line x1="693" x2="693" y2="3"></line><line x1="693" x2="693" y1="31" y2="28"></line><line x1="670" x2="670" y2="3"></line><line x1="670" x2="670" y1="31" y2="28"></line><line x1="648" x2="648" y2="3"></line><line x1="648" x2="648" y1="31" y2="28"></line><line x1="626" x2="626" y2="3"></line><line x1="626" x2="626" y1="31" y2="28"></line><line x1="603" x2="603" y2="3"></line><line x1="603" x2="603" y1="31" y2="28"></line><line x1="581" x2="581" y2="3"></line><line x1="581" x2="581" y1="31" y2="28"></line><line x1="559" x2="559" y2="31"></line><line x1="536" x2="536" y2="3"></line><line x1="536" x2="536" y1="31" y2="28"></line><line x1="514" x2="514" y2="3"></line><line x1="514" x2="514" y1="31" y2="28"></line><line x1="492" x2="492" y2="3"></line><line x1="492" x2="492" y1="31" y2="28"></line><line x1="469" x2="469" y2="3"></line><line x1="469" x2="469" y1="31" y2="28"></line><line x1="447" x2="447" y2="31"></line><line x1="425" x2="425" y2="3"></line><line x1="425" x2="425" y1="31" y2="28"></line><line x1="402" x2="402" y2="3"></line><line x1="402" x2="402" y1="31" y2="28"></line><line x1="380" x2="380" y2="31"></line><line x1="358" x2="358" y2="3"></line><line x1="358" x2="358" y1="31" y2="28"></line><line x1="335" x2="335" y2="3"></line><line x1="335" x2="335" y1="31" y2="28"></line><line x1="313" x2="313" y2="3"></line><line x1="313" x2="313" y1="31" y2="28"></line><line x1="290" x2="290" y2="3"></line><line x1="290" x2="290" y1="31" y2="28"></line><line x1="268" x2="268" y2="31"></line><line x1="246" x2="246" y2="3"></line><line x1="246" x2="246" y1="31" y2="28"></line><line x1="223" x2="223" y2="3"></line><line x1="223" x2="223" y1="31" y2="28"></line><line x1="201" x2="201" y2="3"></line><line x1="201" x2="201" y1="31" y2="28"></line><line x1="179" x2="179" y2="3"></line><line x1="179" x2="179" y1="31" y2="28"></line><line x1="156" x2="156" y2="3"></line><line x1="156" x2="156" y1="31" y2="28"></line><line x1="134" x2="134" y2="3"></line><line x1="134" x2="134" y1="31" y2="28"></line><line x1="112" x2="112" y2="3"></line><line x1="112" x2="112" y1="31" y2="28"></line><line x1="89" x2="89" y2="3"></line><line x1="89" x2="89" y1="31" y2="28"></line><line x1="67" x2="67" y2="3"></line><line x1="67" x2="67" y1="31" y2="28"></line><line x1="45" x2="45" y2="3"></line><line x1="45" x2="45" y1="31" y2="28"></line><line x1="22" x2="22" y2="3"></line><line x1="22" x2="22" y1="31" y2="28"></line></g><g><g><rect x="559" width="156" height="31" field="opcode" style="fill-opacity:0.1"></rect><rect x="447" width="112" height="31" field="rd" style="fill-opacity:0.1;fill:hsl(0,100%,50%)"></rect><rect x="380" width="67" height="31" field="funct3" style="fill-opacity:0.1"></rect><rect x="268" width="112" height="31" field="rs1" style="fill-opacity:0.1;fill:hsl(170,100%,50%)"></rect><rect width="268" height="31" field="imm[11:0]" style="fill-opacity:0.1;fill:hsl(80,100%,50%)"></rect></g><g transform="translate(11,-11)"><g transform="translate(693)"><text y="6">0</text></g><g transform="translate(559)"><text y="6">6</text></g><g transform="translate(536)"><text y="6">7</text></g><g transform="translate(447)"><text y="6">11</text></g><g transform="translate(425)"><text y="6">12</text></g><g transform="translate(380)"><text y="6">14</text></g><g transform="translate(358)"><text y="6">15</text></g><g transform="translate(268)"><text y="6">19</text></g><g transform="translate(246)"><text y="6">20</text></g><g transform="translate(0)"><text y="6">31</text></g></g><g transform="translate(11,15)"><g transform="translate(626)"><text y="6"><tspan>opcode</tspan></text></g><g transform="translate(492)"><text y="6"><tspan>rd</tspan></text></g><g transform="translate(402)"><text y="6"><tspan>funct3</tspan></text></g><g transform="translate(313)"><text y="6"><tspan>rs1</tspan></text></g><g transform="translate(123)"><text y="6"><tspan>imm[11:0]</tspan></text></g></g><g transform="translate(11,39)"></g></g><g text-anchor="start"><g transform="translate(719,16)"><text y="6"><tspan>I-Type</tspan></text></g></g></g></g></svg>